<?xml version="1.0" standalone="no"?>
<!DOCTYPE svg PUBLIC "-//W3C//DTD SVG 20010904//EN"
 "http://www.w3.org/TR/2001/REC-SVG-20010904/DTD/svg10.dtd">
<svg version="1.0" xmlns="http://www.w3.org/2000/svg"
 width="1254.000000pt" height="1254.000000pt" viewBox="0 0 1254.000000 1254.000000"
 preserveAspectRatio="xMidYMid meet">

<g transform="translate(0.000000,1254.000000) scale(0.100000,-0.100000)"
fill="#000000" stroke="none">
<path d="M0 6270 l0 -6270 6270 0 6270 0 0 6270 0 6270 -6270 0 -6270 0 0
-6270z m6230 5615 c204 -334 409 -604 676 -886 238 -251 363 -355 864 -719
111 -81 315 -252 453 -380 46 -44 49 -50 87 -184 22 -77 39 -141 37 -143 -2
-1 -30 14 -63 33 -32 20 -106 65 -164 99 -58 35 -166 106 -240 159 l-135 95
-15 -27 c-10 -18 -15 -53 -14 -107 0 -66 8 -102 44 -210 23 -71 48 -136 54
-144 9 -12 8 -12 -10 -3 -25 13 -109 87 -200 174 l-61 59 33 92 c17 51 46 123
63 160 l30 68 -42 37 c-272 242 -442 410 -615 609 -110 127 -125 141 -142 131
-23 -15 -27 -11 -34 25 -2 14 -8 32 -12 39 -4 7 6 2 21 -12 16 -14 0 12 -36
58 -35 46 -68 86 -74 90 -5 3 -4 -2 4 -11 7 -9 12 -17 10 -18 -2 0 -13 -2 -23
-4 -11 -2 -31 -7 -45 -11 -14 -4 -36 -6 -49 -5 -23 3 -23 2 -7 -31 l16 -33
-20 25 c-29 36 -156 274 -227 425 -79 168 -167 391 -136 347 15 -22 21 32 7
58 -11 21 -13 22 -22 5 -9 -15 -14 -7 -31 46 -20 61 -62 209 -62 218 0 8 6 -2
80 -124z m1225 -465 c217 -322 417 -562 677 -815 184 -180 458 -408 600 -499
15 -10 42 -44 59 -75 194 -345 345 -564 593 -858 102 -122 108 -131 111 -178
1 -27 16 -84 33 -125 16 -41 42 -124 57 -185 15 -60 35 -118 44 -129 19 -22
71 -50 78 -42 3 3 28 -25 56 -62 88 -116 182 -225 245 -283 74 -69 194 -151
256 -174 46 -18 69 -16 132 11 12 5 37 -84 49 -174 l7 -52 -44 -20 c-71 -32
-120 -27 -228 28 -52 26 -108 60 -123 74 -16 15 -68 46 -116 70 -78 39 -91 50
-132 108 -26 36 -120 158 -211 271 -95 119 -167 218 -171 235 -3 15 -1 39 4
52 22 56 6 167 -38 265 -33 73 -48 74 -22 0 20 -59 26 -167 9 -193 -5 -8 -11
-12 -13 -10 -21 25 -71 107 -97 160 -51 103 -130 218 -217 315 -91 102 -118
143 -242 363 -49 86 -137 238 -196 337 -106 177 -109 182 -292 369 -102 105
-190 191 -196 192 -28 2 -31 5 -18 13 11 7 5 18 -27 52 -32 34 -40 39 -35 22
4 -18 1 -23 -15 -23 -11 0 -22 -4 -24 -10 -1 -5 -20 -10 -40 -12 l-36 -2 14
-30 15 -31 -20 25 c-11 14 -30 43 -41 65 -18 32 -18 36 -3 17 l18 -22 18 20
c10 12 15 25 12 30 -9 14 17 61 32 56 22 -9 15 7 -22 49 -24 27 -35 34 -33 21
2 -10 -6 -23 -16 -30 -11 -6 -28 -18 -39 -28 -18 -15 -18 -17 -2 -42 10 -14
15 -26 12 -26 -12 0 -48 71 -41 81 4 7 3 9 -3 6 -6 -4 -30 25 -54 65 -53 90
-219 412 -218 424 0 5 30 -49 66 -121 l67 -130 8 43 c6 25 13 40 20 36 10 -7
-147 233 -165 251 -7 7 -8 6 -3 -2 4 -7 3 -13 -3 -13 -6 0 -8 -7 -4 -16 5 -13
7 -13 14 -2 5 7 9 9 9 3 0 -5 -4 -16 -9 -23 -5 -9 -20 13 -44 67 -41 90 -47
111 -17 66 26 -39 26 -25 0 26 -13 24 -25 37 -32 33 -8 -5 -9 -2 -5 9 3 10 2
17 -2 17 -7 0 -57 112 -89 200 -9 24 1 11 83 -110z m-2275 -449 c0 -10 5 -65
10 -121 6 -56 9 -104 7 -106 -2 -2 -47 -8 -102 -14 -54 -7 -140 -22 -192 -35
l-93 -24 -98 20 c-53 10 -158 22 -232 26 l-135 7 90 42 c111 53 381 143 535
179 63 15 129 31 145 35 50 14 65 11 65 -9z m1616 -58 c15 -21 21 -32 12 -25
-9 7 -28 11 -42 8 -14 -3 -26 0 -26 5 0 11 19 49 24 49 2 0 16 -17 32 -37z
m-1367 -94 c110 -82 282 -186 391 -238 74 -35 75 -35 40 -39 -72 -8 -285 19
-396 49 l-110 31 -15 134 c-8 74 -13 134 -11 134 2 0 48 -32 101 -71z m-419
-204 c33 -19 21 -19 -21 0 -19 8 -27 14 -19 14 8 0 26 -6 40 -14z m197 -87
c-2 -13 -4 -3 -4 22 0 25 2 35 4 23 2 -13 2 -33 0 -45z m180 -115 c-3 -10 -5
-4 -5 12 0 17 2 24 5 18 2 -7 2 -21 0 -30z m1019 -18 c84 -14 156 -25 160 -25
4 0 4 -3 0 -7 -4 -4 -121 -8 -259 -9 -272 -1 -402 -12 -627 -50 -256 -44 -510
-116 -760 -216 -143 -58 -370 -164 -370 -173 0 -3 4 -3 10 0 5 3 15 -5 22 -19
6 -14 15 -26 20 -26 4 0 8 -9 8 -20 0 -11 6 -20 14 -20 9 0 12 -8 8 -26 -3
-19 -1 -25 7 -20 6 4 11 1 12 -6 0 -10 2 -10 6 -1 3 10 8 9 19 -2 15 -15 11
-35 -7 -35 -6 0 -7 5 -3 12 4 7 3 8 -4 4 -11 -7 -20 -1 -57 32 -13 11 -15 10
-15 -8 0 -14 5 -20 13 -17 13 5 40 -17 31 -26 -3 -2 1 -7 9 -10 7 -2 39 6 72
19 105 43 68 19 -62 -41 -144 -65 -373 -182 -508 -260 -138 -80 -174 -99 -147
-78 30 23 150 94 225 133 31 17 57 32 57 35 0 6 -48 -15 -78 -33 -20 -13 -24
-12 -41 7 -12 14 -22 18 -26 11 -3 -6 -10 -8 -15 -5 -5 3 -22 -2 -37 -12 -31
-20 -27 -7 11 36 12 13 15 21 8 17 -22 -13 -163 -206 -157 -216 13 -22 -42
-30 -204 -30 -299 0 -569 -58 -838 -180 -36 -17 -68 -29 -69 -27 -2 2 34 44
79 94 444 491 1132 886 1847 1062 362 89 826 145 1270 154 58 1 132 3 164 4
33 1 128 -9 212 -22z m625 -92 c13 -16 12 -17 -3 -4 -17 13 -22 21 -14 21 2 0
10 -8 17 -17z m155 -195 c25 -32 43 -58 41 -58 -5 0 -116 137 -126 155 -10 18
37 -36 85 -97z m-743 -15 c-46 -2 -120 -2 -165 0 -46 1 -9 3 82 3 91 0 128 -2
83 -3z m1897 -99 c14 -15 -3 -4 -37 26 -35 29 -63 55 -63 57 0 8 74 -54 100
-83z m-3476 40 c-10 -15 -23 -23 -31 -20 -8 4 -20 6 -26 7 -9 0 58 38 71 39 1
0 -5 -11 -14 -26z m3616 -14 c0 -5 -4 -10 -10 -10 -5 0 -10 5 -10 10 0 6 5 10
10 10 6 0 10 -4 10 -10z m-1209 -17 c13 -16 12 -17 -3 -4 -10 7 -18 15 -18 17
0 8 8 3 21 -13z m-2641 -73 c0 -5 -7 -10 -15 -10 -8 0 -15 5 -15 10 0 6 7 10
15 10 8 0 15 -4 15 -10z m2721 -17 c13 -16 12 -17 -3 -4 -10 7 -18 15 -18 17
0 8 8 3 21 -13z m-912 -335 c85 -161 230 -439 324 -618 93 -179 240 -460 327
-625 445 -847 1179 -2259 1710 -3290 404 -785 711 -1379 830 -1605 59 -113
151 -290 205 -395 54 -104 146 -282 205 -395 59 -113 187 -357 285 -543 97
-186 175 -340 173 -342 -2 -2 -107 46 -233 107 -127 60 -501 240 -833 399
-331 159 -676 324 -765 367 -157 75 -166 81 -310 207 -82 71 -144 131 -138
133 6 2 95 -10 198 -27 372 -60 686 -92 706 -72 9 9 9 16 0 29 -13 19 -12 16
-476 892 -176 333 -331 621 -343 641 -20 32 -30 38 -111 59 -370 96 -615 176
-707 229 l-78 45 -167 2 c-91 1 -199 2 -238 3 l-73 1 0 45 0 45 163 0 c136 1
159 3 145 14 -10 7 -15 16 -12 19 4 3 199 3 435 0 400 -5 429 -5 429 11 0 10
-72 153 -159 319 -305 579 -429 815 -631 1192 -111 209 -243 457 -292 550 -50
94 -150 280 -223 415 -128 237 -284 528 -435 812 -40 76 -76 135 -81 133 -8
-6 -16 -20 -211 -380 -69 -126 -197 -363 -285 -525 -374 -687 -978 -1810
-1251 -2324 -55 -105 -98 -194 -96 -198 3 -5 192 -6 420 -2 311 5 414 4 414
-4 0 -7 -7 -12 -15 -12 -8 0 -15 -4 -15 -10 0 -6 52 -10 135 -10 l135 0 0 -45
c0 -36 -4 -45 -17 -46 -10 0 -108 -2 -217 -5 l-200 -5 -58 -34 c-58 -34 -264
-104 -612 -208 l-178 -54 -65 -119 c-124 -226 -671 -1249 -707 -1323 -21 -40
-53 -88 -72 -105 -32 -29 -34 -34 -19 -46 10 -8 37 -13 68 -12 142 5 426 38
632 72 126 21 231 37 232 36 1 -1 -59 -59 -135 -129 l-137 -127 -275 -136
c-401 -199 -1695 -824 -1705 -824 -2 0 75 151 332 645 77 149 187 360 243 470
181 352 408 789 685 1320 34 66 226 437 425 825 438 852 787 1515 1780 3385
213 402 457 863 543 1025 227 432 232 440 237 440 3 0 75 -132 159 -292z
m1956 162 c4 -8 -8 -2 -24 14 -17 17 -31 31 -31 33 0 9 50 -34 55 -47z m205
-60 c12 -16 19 -30 16 -30 -2 0 -14 14 -26 30 -12 17 -19 30 -16 30 2 0 14
-13 26 -30z m-70 -55 c13 -14 21 -25 18 -25 -2 0 -15 11 -28 25 -13 14 -21 25
-18 25 2 0 15 -11 28 -25z m-1565 -75 c10 -11 16 -20 13 -20 -3 0 -13 9 -23
20 -10 11 -16 20 -13 20 3 0 13 -9 23 -20z m1735 -75 c19 -19 32 -35 29 -35
-3 0 -20 16 -39 35 -19 19 -32 35 -29 35 3 0 20 -16 39 -35z m38 -1 c-4 -3
-12 5 -18 18 -12 22 -12 22 6 6 10 -10 15 -20 12 -24z m-4308 -26 c-19 -11
-51 -31 -70 -44 -169 -113 -401 -297 -587 -466 -135 -122 -178 -169 -165 -183
4 -5 2 -5 -5 -1 -23 13 -316 -336 -307 -366 3 -10 0 -18 -6 -18 -6 0 -8 6 -5
13 4 6 -5 -1 -19 -18 -30 -34 -34 -54 -8 -34 15 13 16 12 3 -3 -7 -10 -17 -15
-22 -13 -20 13 -222 -329 -309 -526 l-52 -115 -96 -48 c-195 -96 -363 -218
-535 -385 l-118 -115 40 115 c319 922 966 1584 2095 2141 172 84 241 112 166
66z m5081 -180 c-4 -60 -8 -56 -14 20 -3 37 -1 49 7 43 6 -6 9 -31 7 -63z m30
15 c13 -16 12 -17 -3 -4 -10 7 -18 15 -18 17 0 8 8 3 21 -13z m-738 -83 c26
-16 36 -18 32 -7 -4 9 2 16 16 20 18 5 20 9 10 21 -10 12 -9 14 8 9 12 -3 21
-10 21 -17 0 -6 5 -4 10 4 5 8 10 10 10 5 0 -6 9 -11 19 -11 16 0 18 4 10 21
-13 26 27 -21 42 -50 10 -19 9 -19 -5 -2 -18 24 -28 22 -44 -9 -7 -13 -17 -22
-22 -19 -6 4 -10 1 -10 -5 0 -8 -6 -8 -22 0 -22 11 -22 10 -4 -4 10 -9 22 -13
26 -11 8 5 24 -25 18 -31 -2 -1 -50 28 -106 65 -145 96 -149 105 -9 21z m816
-35 c13 -22 15 -31 6 -20 -18 22 -53 86 -38 70 6 -5 20 -28 32 -50z m-102 -67
c-2 -13 -4 -3 -4 22 0 25 2 35 4 23 2 -13 2 -33 0 -45z m-604 -221 c38 -27 70
-60 96 -101 36 -57 81 -140 81 -149 0 -6 -92 10 -141 24 -28 9 -61 30 -89 59
-48 47 -70 102 -86 213 l-7 49 44 -27 c24 -16 70 -46 102 -68z m245 -2 c-3 -3
-9 2 -12 12 -6 14 -5 15 5 6 7 -7 10 -15 7 -18z m-5322 -157 c-68 -73 -143
-157 -166 -185 -23 -29 -44 -53 -47 -53 -7 0 6 17 76 100 51 61 252 270 259
270 2 0 -53 -60 -122 -132z m5430 -33 c14 -22 19 -33 10 -25 -10 7 -24 27 -33
44 -19 38 -12 32 23 -19z m461 -72 c-3 -10 -5 -2 -5 17 0 19 2 27 5 18 2 -10
2 -26 0 -35z m-6167 -227 c0 -2 -8 -10 -17 -17 -16 -13 -17 -12 -4 4 13 16 21
21 21 13z m5741 -43 c13 -16 12 -17 -3 -4 -10 7 -18 15 -18 17 0 8 8 3 21 -13z
m-5891 -173 c-6 -11 -13 -20 -16 -20 -2 0 0 9 6 20 6 11 13 20 16 20 2 0 0 -9
-6 -20z m970 -74 c0 -2 -8 -10 -17 -17 -16 -13 -17 -12 -4 4 13 16 21 21 21
13z m-1571 -626 c-36 -100 -97 -345 -139 -550 -55 -275 -71 -411 -77 -660 l-6
-235 -57 -76 c-120 -161 -214 -339 -300 -572 l-47 -128 -7 48 c-14 112 -18
412 -7 528 55 558 240 1052 631 1683 18 29 34 52 36 50 1 -2 -11 -42 -27 -88z
m3361 -194 c0 -2 -7 -7 -16 -10 -8 -3 -12 -2 -9 4 6 10 25 14 25 6z m3565
-644 c-3 -3 -6 1 -6 9 -1 8 -5 -4 -9 -26 l-7 -40 -2 52 c0 28 -4 60 -7 70 -3
10 4 0 15 -21 12 -22 19 -42 16 -44z m-3055 34 c0 -2 -8 -10 -17 -17 -16 -13
-17 -12 -4 4 13 16 21 21 21 13z m221 -13 c13 -16 12 -17 -3 -4 -10 7 -18 15
-18 17 0 8 8 3 21 -13z m-1321 3 c0 -2 -8 -10 -17 -17 -16 -13 -17 -12 -4 4
13 16 21 21 21 13z m4147 -108 c-3 -8 -6 -5 -6 6 -1 11 2 17 5 13 3 -3 4 -12
1 -19z m112 -132 c85 -217 143 -487 162 -746 10 -145 3 -394 -11 -385 -4 3
-10 46 -14 97 -3 51 -13 149 -21 218 -29 238 -32 310 -17 319 12 7 12 19 -1
86 -15 73 -37 122 -37 83 0 -9 -7 -18 -15 -22 -21 -8 -19 17 4 38 17 15 17 22
6 74 -15 71 -63 228 -80 262 -14 28 -28 80 -21 80 2 0 22 -47 45 -104z m-12
-218 c-3 -8 -6 -5 -6 6 -1 11 2 17 5 13 3 -3 4 -12 1 -19z m10 -60 c-3 -7 -5
-2 -5 12 0 14 2 19 5 13 2 -7 2 -19 0 -25z m10 -60 c-3 -7 -5 -2 -5 12 0 14 2
19 5 13 2 -7 2 -19 0 -25z m10 -55 c-3 -10 -5 -4 -5 12 0 17 2 24 5 18 2 -7 2
-21 0 -30z m-7227 -198 c29 -144 78 -321 146 -523 45 -133 54 -171 49 -202 -4
-22 -1 -99 5 -172 9 -103 21 -161 52 -262 22 -72 44 -133 48 -136 4 -3 10 -61
13 -130 3 -69 3 -115 0 -103 -4 19 -7 21 -27 11 -17 -7 -22 -16 -19 -32 9 -40
-69 108 -112 213 -170 416 -248 988 -198 1451 8 74 4 84 43 -115z m7237 118
c-3 -10 -5 -2 -5 17 0 19 2 27 5 18 2 -10 2 -26 0 -35z m10 -110 c-2 -16 -4
-5 -4 22 0 28 2 40 4 28 2 -13 2 -35 0 -50z m10 -260 c-2 -37 -3 -9 -3 62 0
72 1 102 3 68 2 -34 2 -93 0 -130z m-3367 77 l0 -40 -42 2 -43 1 38 4 c35 4
37 6 37 39 0 19 2 34 5 34 3 0 5 -18 5 -40z m3357 -257 c-3 -10 -5 -2 -5 17 0
19 2 27 5 18 2 -10 2 -26 0 -35z m-4560 15 c-3 -8 -6 -5 -6 6 -1 11 2 17 5 13
3 -3 4 -12 1 -19z m641 -125 c-10 -2 -28 -2 -40 0 -13 2 -5 4 17 4 22 1 32 -1
23 -4z m375 0 c-13 -2 -33 -2 -45 0 -13 2 -3 4 22 4 25 0 35 -2 23 -4z m3524
-25 c-3 -8 -6 -5 -6 6 -1 11 2 17 5 13 3 -3 4 -12 1 -19z m-4080 -180 c-2 -13
-4 -5 -4 17 -1 22 1 32 4 23 2 -10 2 -28 0 -40z m4050 10 c-3 -8 -6 -5 -6 6
-1 11 2 17 5 13 3 -3 4 -12 1 -19z m-4050 -435 c-3 -10 -5 -2 -5 17 0 19 2 27
5 18 2 -10 2 -26 0 -35z m-2830 -50 c-3 -10 -5 -4 -5 12 0 17 2 24 5 18 2 -7
2 -21 0 -30z m6663 -131 c0 -5 -7 -17 -15 -28 -14 -18 -14 -17 -4 9 12 27 19
34 19 19z m-3731 -98 c14 -12 -19 -1 -35 12 -18 14 -18 14 6 3 14 -6 27 -13
29 -15z m-2919 -204 c0 -11 -2 -20 -4 -20 -2 0 -6 9 -9 20 -3 11 -1 20 4 20 5
0 9 -9 9 -20z m6658 -60 l-43 -79 -17 32 c-23 43 -23 59 1 24 l18 -28 17 25
c9 14 16 28 16 32 0 9 41 74 46 74 3 0 -14 -36 -38 -80z m-3198 -157 c63 -30
107 -34 113 -11 4 14 15 18 45 18 37 0 40 -2 45 -32 3 -18 9 -48 13 -65 l7
-33 -80 0 c-44 0 -107 3 -141 6 l-60 7 -7 45 -7 45 -91 -6 c-50 -2 -117 -2
-149 1 -53 4 -58 7 -58 29 l0 24 163 -3 c142 -3 168 -6 207 -25z m1587 -65
c-3 -8 -6 -5 -6 6 -1 11 2 17 5 13 3 -3 4 -12 1 -19z m-1904 -45 c-13 -2 -33
-2 -45 0 -13 2 -3 4 22 4 25 0 35 -2 23 -4z m-20 -75 c-25 -5 -43 -16 -46 -26
-3 -10 -5 -6 -6 11 -1 26 1 27 47 26 l47 -1 -42 -10z m592 -95 c9 -60 24 -139
31 -176 23 -115 30 -107 -93 -105 -99 1 -103 2 -43 8 36 4 59 7 51 8 -11 2
-11 6 2 20 19 21 23 67 6 78 -6 3 -15 1 -19 -5 -8 -14 -20 44 -20 101 0 63 -5
68 -76 68 l-65 0 3 -97 3 -98 40 -6 c34 -5 30 -6 -22 -6 l-63 0 -6 36 c-3 20
-10 59 -15 86 -5 28 -10 83 -12 123 l-3 72 142 0 141 0 18 -107z m-2264 80
c13 -16 12 -17 -3 -4 -17 13 -22 21 -14 21 2 0 10 -8 17 -17z m1742 -100 c-7
-2 -19 -2 -25 0 -7 3 -2 5 12 5 14 0 19 -2 13 -5z m-46 -60 c-3 -10 -5 -2 -5
17 0 19 2 27 5 18 2 -10 2 -26 0 -35z m1204 -190 c13 -16 12 -17 -3 -4 -10 7
-18 15 -18 17 0 8 8 3 21 -13z m-1223 -10 c-16 -2 -40 -2 -55 0 -16 2 -3 4 27
4 30 0 43 -2 28 -4z m319 0 c-20 -2 -52 -2 -70 0 -17 2 0 4 38 4 39 0 53 -2
32 -4z m-831 -76 c0 -12 -10 -33 -24 -47 -14 -14 -23 -18 -20 -10 34 97 40
104 44 57z m414 26 c2 -33 -136 -700 -142 -689 -6 11 -13 12 -33 3 -14 -7 -25
-17 -25 -23 0 -26 -75 -73 -82 -52 -2 6 -10 -8 -17 -32 -7 -23 -14 -40 -16
-38 -3 2 13 71 35 153 22 83 70 270 107 418 l67 267 53 0 c29 0 53 -3 53 -7z
m546 -20 c9 -41 148 -581 200 -782 25 -95 43 -175 41 -177 -2 -3 -10 16 -17
41 -9 32 -16 42 -21 33 -6 -9 -9 -7 -9 8 0 12 -9 31 -20 44 -11 13 -20 25 -20
27 0 2 9 -1 20 -7 26 -14 26 -7 -5 104 -24 89 -35 114 -35 83 0 -22 -38 -42
-74 -38 -28 3 -29 2 -23 -34 8 -48 11 -50 51 -38 30 9 35 8 38 -6 2 -9 2 -23
0 -33 -3 -15 -7 -14 -38 4 l-34 20 0 -22 c0 -11 -4 -18 -10 -15 -5 3 -10 18
-10 32 0 14 -6 51 -14 82 -20 80 -29 149 -18 132 11 -16 32 -7 32 14 0 7 9 16
19 20 34 11 30 31 -19 88 -52 61 -65 62 -49 3 6 -20 9 -49 7 -64 -2 -15 -20
61 -41 168 -21 107 -42 217 -48 243 -18 92 -16 97 41 97 46 0 50 -2 56 -27z
m342 -33 c27 -75 11 -80 -45 -13 l-40 46 -106 5 c-59 2 -107 9 -107 13 0 5 62
9 138 9 l138 0 22 -60z m-1098 -130 c-10 -18 -24 -19 -235 -22 -124 -2 -225 0
-225 4 0 37 6 38 241 38 225 0 229 0 219 -20z m1328 -25 c22 -46 30 -74 11
-42 -5 9 -20 17 -32 17 -13 0 -28 5 -33 10 -6 6 -96 13 -210 17 -187 6 -213
10 -214 36 0 4 103 7 228 7 l228 0 22 -45z m67 -135 c28 -56 33 -75 10 -42
-19 26 -47 92 -40 92 2 0 16 -22 30 -50z m-1634 -120 l159 0 -12 -25 -11 -24
-341 -3 c-188 -2 -342 -2 -344 -2 -1 1 3 13 9 27 12 26 12 26 153 30 78 2 161
2 185 0 24 -2 115 -3 202 -3z m1811 0 c53 0 59 -2 73 -30 21 -41 20 -43 -22
-35 -21 4 -180 9 -353 12 -173 2 -315 5 -316 6 -1 1 -5 12 -8 24 l-7 23 178 3
c98 2 228 2 288 0 61 -1 136 -3 167 -3z m-1518 -359 c-4 -17 -9 -30 -11 -27
-3 2 -2 19 2 36 9 41 17 33 9 -9z m-250 19 c3 -3 3 -15 0 -27 -5 -17 -16 -22
-57 -26 -66 -7 -897 -9 -897 -3 0 3 5 16 11 30 10 22 19 25 68 28 100 5 869 3
875 -2z m2205 -24 c12 -18 21 -35 21 -37 0 -2 -217 -3 -482 -1 -439 2 -484 4
-495 19 -7 9 -13 25 -13 35 0 17 23 18 474 18 l474 0 21 -34z m-965 -316 c4
-24 3 -29 -3 -15 -4 11 -11 36 -15 55 -4 24 -3 29 3 15 4 -11 11 -36 15 -55z
m-1217 38 c-3 -8 -6 -5 -6 6 -1 11 2 17 5 13 3 -3 4 -12 1 -19z m-10 -40 c-3
-8 -6 -5 -6 6 -1 11 2 17 5 13 3 -3 4 -12 1 -19z m-505 -35 c-211 -2 -321 -7
-317 -13 4 -6 -1 -13 -9 -16 -36 -14 -11 -23 67 -27 45 -1 -26 -3 -158 -4
-132 0 -232 1 -222 4 22 6 21 9 -3 33 -17 17 -33 20 -100 20 -50 0 -80 -4 -80
-11 0 -6 8 -8 19 -4 11 3 24 -1 32 -11 7 -9 22 -20 34 -24 13 -6 -7 -9 -58 -9
-43 -1 -77 2 -75 7 2 4 10 19 17 35 l14 27 581 -2 c346 -2 450 -4 258 -5z
m3117 -27 c12 -18 21 -35 21 -37 0 -2 -21 -3 -48 -3 -26 1 -252 2 -502 3 -362
2 -448 5 -423 14 18 7 33 17 33 22 0 6 26 13 57 16 41 4 20 6 -72 7 l-131 2
-2 -24 c-1 -16 4 -26 16 -29 9 -3 -34 -5 -95 -6 -62 0 -113 1 -113 3 0 2 -3
13 -6 23 -5 17 -5 17 6 1 14 -23 21 -23 50 5 l25 22 -40 6 c-22 3 240 7 582 8
l621 1 21 -34z m-3234 -1 c-63 -14 -71 -13 -60 4 3 6 32 11 63 10 l57 -1 -60
-13z m403 -2 c6 -9 29 -19 53 -23 32 -6 17 -7 -56 -7 -55 0 -90 2 -79 4 12 2
24 13 27 24 6 24 42 25 55 2z m1359 -299 c-3 -3 -12 -4 -19 -1 -8 3 -5 6 6 6
11 1 17 -2 13 -5z m-1859 -601 c-21 -2 -55 -2 -75 0 -21 2 -4 4 37 4 41 0 58
-2 38 -4z m2760 0 c-21 -2 -55 -2 -75 0 -21 2 -4 4 37 4 41 0 58 -2 38 -4z"/>
<path d="M6493 11326 c0 -7 9 -19 19 -25 17 -11 18 -10 9 8 -14 25 -28 34 -28
17z"/>
<path d="M6460 11300 c0 -5 -7 -7 -15 -4 -8 4 -15 2 -15 -2 0 -13 18 -39 23
-34 8 9 18 50 13 50 -3 0 -6 -4 -6 -10z"/>
<path d="M6566 11026 c3 -9 11 -16 16 -16 13 0 5 23 -10 28 -7 2 -10 -2 -6
-12z"/>
<path d="M7561 9704 c0 -11 3 -14 6 -6 3 7 2 16 -1 19 -3 4 -6 -2 -5 -13z"/>
<path d="M7760 10722 c12 -23 25 -40 30 -37 5 3 2 14 -8 24 -9 10 -23 26 -30
37 -7 10 -3 0 8 -24z"/>
<path d="M4448 9864 c-38 -20 -36 -28 2 -9 17 9 30 18 30 20 0 7 -1 6 -32 -11z"/>
<path d="M4359 9764 c-9 -12 -10 -15 -1 -10 7 4 12 1 12 -8 0 -17 9 -20 34
-10 17 7 22 34 7 34 -5 0 -16 2 -24 5 -7 3 -20 -2 -28 -11z"/>
<path d="M4450 9730 c0 -5 7 -10 16 -10 8 0 12 5 9 10 -3 6 -10 10 -16 10 -5
0 -9 -4 -9 -10z"/>
<path d="M4400 9726 c0 -4 7 -17 15 -30 29 -44 16 -72 -47 -106 -112 -60 -56
-39 87 32 79 40 142 74 140 76 -2 2 -13 -2 -25 -8 -14 -8 -25 -8 -34 -1 -6 5
-30 14 -51 20 -22 5 -50 13 -62 16 -13 4 -23 4 -23 1z"/>
<path d="M5885 2929 c-8 -24 -28 -49 -40 -49 -4 0 -18 -9 -33 -20 -18 -15 -28
-17 -33 -9 -4 7 -10 -1 -14 -20 -4 -18 -5 -34 -3 -36 2 -2 20 -5 41 -7 20 -1
39 -8 41 -15 12 -30 23 -8 39 78 17 87 17 127 2 78z"/>
<path d="M5418 3163 c7 -3 16 -2 19 1 4 3 -2 6 -13 5 -11 0 -14 -3 -6 -6z"/>
<path d="M5540 3160 c20 -13 90 -13 90 0 0 6 -24 10 -52 10 -38 0 -49 -3 -38
-10z"/>
<path d="M4848 2523 c12 -2 30 -2 40 0 9 3 -1 5 -23 4 -22 0 -30 -2 -17 -4z"/>
<path d="M5516 2515 c25 -19 50 -19 58 0 4 12 -3 15 -36 15 -39 0 -40 -1 -22
-15z"/>
<path d="M4568 2153 c17 -2 47 -2 65 0 17 2 3 4 -33 4 -36 0 -50 -2 -32 -4z"/>
<path d="M7617 2144 c27 -12 36 -12 65 1 l33 14 -65 0 c-64 -1 -65 -1 -33 -15z"/>
<path d="M7923 2153 c9 -2 25 -2 35 0 9 3 1 5 -18 5 -19 0 -27 -2 -17 -5z"/>
</g>
</svg>
